# xmcd
#
# Track frame offsets:
#	150
#	42120
#	81707
#	153322
#	181935
#	221352
#
# Disc length: 3456 seconds
#
# Revision: 1
# Processed by: cddbd v1.5PL3 Copyright (c) Steve Scherf et al.
# Submitted via: audiograbber 1.82.01
#
DISCID=480d7e06
DTITLE=Jimi Hendrix  - 1968-03-17 - Cafe au Go-Go - New York, New York
DYEAR=1900
DGENRE=
TTITLE0=Jimi Hendrix - Little Wing
TTITLE1=Jimi Hendrix - Everything's Gonna Be Alright
TTITLE2=Jimi Hendrix - Three Little Bears Part 1
TTITLE3=Jimi Hendrix - Three Little Bears Part 2
TTITLE4=Jimi Hendrix - Instrumental Jam
TTITLE5=Jimi Hendrix - Stormy Monday
EXTD=
EXTT0=
EXTT1=
EXTT2=
EXTT3=
EXTT4=
EXTT5=
PLAYORDER=
